# xmcd
#
# Track frame offsets: 
#        183
#        14190
#        25818
#        38140
#        47748
#        56965
#        71105
#        82133
#        92208
#        102760
#        115870
#        131325
#        145033
#        156915
#        166080
#        179343
#        191100
#        203090
#        215183
#        224810
#        238233
#        251948
#        264153
#        281815
#
# Disc length: 3961 seconds
#
# Revision: 4
# Processed by: cddbd v1.5.2PL0 Copyright (c) Steve Scherf et al.
# Submitted via: ExactAudioCopy v0.90b4
#
DISCID=7d0f7718
DTITLE=Various Artist - Exclusive Country Duets
DYEAR=1988
DGENRE=Country
TTITLE0=Dottie West and Don Gibson - I Love You Because
TTITLE1=Jim Reeves and Deborah Allen - Take Me In Your Arms And Hold Me
TTITLE2=Dave and Sugar - The Door Is Always Open
TTITLE3=Glen Campbell and Anne Murray - You're Easy To Love
TTITLE4=Jimmy Dean and Dottie West - Let It Be Me
TTITLE5=Bobbie Gentry and Glen Campbell - Gentle On My Mind
TTITLE6=Hank Snow and Anita Carter - No Letter Today
TTITLE7=Chet Atkins and Hank Snow - Reminiscing
TTITLE8=Justin Tubb and Lorene Mann - Hurry, Mr. Peters
TTITLE9=Bobby Bare and Skeeter Davis - Too Used To Being With You
TTITLE10=Kenny Rogers and Dottie West - Beautiful Lies
TTITLE11=Jim Ed Brown and Helen Cornelius - I Don't Want To Have To Marr
TTITLE11=y You
TTITLE12=Jimmy Dean and Dottie West - Sweet Thang
TTITLE13=Liz and Lynn Anderson - Mother, May I
TTITLE14=Bobby Bare and Skeeter Davis - Your Husband, My Wife
TTITLE15=Hank Snow and Anita Carter - When My Blue Moon Turns To Gold Ag
TTITLE15=ain
TTITLE16=Jim Ed Brown and Helen Cornelius - I'm Leaving It All Up To You
TTITLE17=Dottie West and Don Gibson - Rings Of Gold
TTITLE18=Bobby Bare and Skeeter Davis - Together Again
TTITLE19=Jim Reeves and Patsy Cline - Have You Ever Been Lonely (Have Yo
TTITLE19=u Ever Been Blue)
TTITLE20=Dottie West and Kenny Rogers - What Are We Doin' In Love
TTITLE21=Rita Coolidge and Glen Campbell - Something 'Bout You Baby I Li
TTITLE21=ke
TTITLE22=Dan Seals and Marie Osmond - Meet Me In Montana
TTITLE23=Tanya Tucker and Glen Campbell - Shoulder To Shoulder
EXTD=Disc-14 YEAR: 1988
EXTT0=
EXTT1=
EXTT2=
EXTT3=
EXTT4=
EXTT5=
EXTT6=
EXTT7=
EXTT8=
EXTT9=
EXTT10=
EXTT11=
EXTT12=
EXTT13=
EXTT14=
EXTT15=
EXTT16=
EXTT17=
EXTT18=
EXTT19=
EXTT20=
EXTT21=
EXTT22=
EXTT23=
PLAYORDER=
